<svg width="180" height="180" viewBox="0 0 180 180" fill="none" xmlns="http://www.w3.org/2000/svg">
<path d="M123.4 105.067L112.967 80.6666C111.067 76.1999 108.233 73.6666 105 73.4999C101.8 73.3332 98.7 75.5666 96.3333 79.8332L90 91.1999C88.6667 93.5999 86.7667 95.0332 84.7 95.1999C82.6 95.3999 80.5 94.2999 78.8 92.1332L78.0667 91.1999C75.7 88.2332 72.7667 86.7999 69.7667 87.0999C66.7667 87.3999 64.2 89.4666 62.5 92.8332L56.7333 104.333C54.6667 108.5 54.8667 113.333 57.3 117.267C59.7333 121.2 63.9667 123.567 68.6 123.567H111.133C115.6 123.567 119.767 121.333 122.233 117.6C124.767 113.867 125.167 109.167 123.4 105.067Z" fill="white"/>
<path d="M73.2333 76.9337C79.4557 76.9337 84.5 71.8895 84.5 65.6671C84.5 59.4446 79.4557 54.4004 73.2333 54.4004C67.0109 54.4004 61.9667 59.4446 61.9667 65.6671C61.9667 71.8895 67.0109 76.9337 73.2333 76.9337Z" fill="white"/>
</svg>
